<svg width="32" height="32" viewBox="0 0 32 32" fill="none" xmlns="http://www.w3.org/2000/svg">
                                        <path d="M25.2887 0H6.71128C3.00502 0 0 3.00502 0 6.71128V25.2887C0 28.995 3.00502 32 6.71128 32H25.2887C28.995 32 32 28.995 32 25.2887V6.71128C32 3.00502 28.995 0 25.2887 0ZM30.7275 6.71128V15.3638H16.6362V1.27247H25.2887C28.292 1.27247 30.7275 3.70796 30.7275 6.71128ZM6.71128 1.27247H15.3638V15.3638H1.27247V6.71128C1.27247 3.70796 3.70796 1.27247 6.71128 1.27247ZM1.27247 25.2887V16.6362H15.3638V30.7275H6.71128C3.70796 30.7275 1.27247 28.292 1.27247 25.2887ZM25.2887 30.7275H16.6362V16.6362H30.7275V25.2887C30.7275 28.292 28.292 30.7275 25.2887 30.7275Z" fill="url(#paint0_linear_0_1)"/>
                                        <path d="M5.19079 9.37595H7.9273V12.1125C7.9273 12.2835 8.06583 12.422 8.23686 12.422H8.89191C9.06295 12.422 9.20148 12.2835 9.20148 12.1125V9.37595H11.938C12.109 9.37595 12.2476 9.23741 12.2476 9.06638V8.41133C12.2476 8.2403 12.109 8.10177 11.938 8.10177H9.20148V5.36526C9.20148 5.19423 9.06295 5.05569 8.89191 5.05569H8.23686C8.06583 5.05569 7.9273 5.19423 7.9273 5.36526V8.10177H5.19079C5.01976 8.10177 4.88123 8.2403 4.88123 8.41133V9.06638C4.88123 9.23741 5.01976 9.37595 5.19079 9.37595Z" fill="url(#paint1_linear_0_1)"/>
                                        <path d="M27.1359 8.10349H20.3921C20.2211 8.10349 20.0825 8.24208 20.0825 8.41305V9.06639C20.0825 9.23736 20.2211 9.37596 20.3921 9.37596H27.1359C27.3068 9.37596 27.4454 9.23736 27.4454 9.06639V8.41305C27.4454 8.24208 27.3068 8.10349 27.1359 8.10349Z" fill="url(#paint2_linear_0_1)"/>
                                        <path d="M9.46483 24.1719L11.3992 22.2375C11.5206 22.1161 11.5206 21.9211 11.3992 21.7997L10.9357 21.3362C10.8143 21.2148 10.6193 21.2148 10.4979 21.3362L8.5635 23.2706L6.62913 21.3362C6.5077 21.2148 6.31272 21.2148 6.19129 21.3362L5.72779 21.7997C5.60636 21.9211 5.60636 22.1161 5.72779 22.2375L7.66216 24.1719L5.72779 26.1063C5.60636 26.2277 5.60636 26.4227 5.72779 26.5441L6.19129 27.0076C6.31272 27.129 6.5077 27.129 6.62913 27.0076L8.5635 25.0732L10.4979 27.0076C10.6193 27.129 10.8143 27.129 10.9357 27.0076L11.3992 26.5441C11.5206 26.4227 11.5206 26.2277 11.3992 26.1063L9.46483 24.1719Z" fill="url(#paint3_linear_0_1)"/>
                                        <path d="M27.1359 26.1388H20.3921C20.2211 26.1388 20.0825 26.2774 20.0825 26.4483V27.1017C20.0825 27.2726 20.2211 27.4112 20.3921 27.4112H27.1359C27.3068 27.4112 27.4454 27.2726 27.4454 27.1017V26.4483C27.4454 26.2774 27.3068 26.1388 27.1359 26.1388Z" fill="url(#paint4_linear_0_1)"/>
                                        <defs>
                                        <linearGradient id="paint0_linear_0_1" x1="0" y1="16" x2="32" y2="16" gradientUnits="userSpaceOnUse">
                                        <stop stop-color="#18B7F1"/>
                                        <stop offset="1" stop-color="#185EF1"/>
                                        </linearGradient>
                                        <linearGradient id="paint1_linear_0_1" x1="4.88294" y1="8.73971" x2="12.2458" y2="8.73971" gradientUnits="userSpaceOnUse">
                                        <stop stop-color="#18B7F1"/>
                                        <stop offset="1" stop-color="#185EF1"/>
                                        </linearGradient>
                                        <linearGradient id="paint2_linear_0_1" x1="20.0825" y1="8.73972" x2="27.4454" y2="8.73972" gradientUnits="userSpaceOnUse">
                                        <stop stop-color="#18B7F1"/>
                                        <stop offset="1" stop-color="#185EF1"/>
                                        </linearGradient>
                                        <linearGradient id="paint3_linear_0_1" x1="5.63886" y1="24.1719" x2="11.4898" y2="24.1719" gradientUnits="userSpaceOnUse">
                                        <stop stop-color="#18B7F1"/>
                                        <stop offset="1" stop-color="#185EF1"/>
                                        </linearGradient>
                                        <linearGradient id="paint4_linear_0_1" x1="20.0825" y1="26.775" x2="27.4454" y2="26.775" gradientUnits="userSpaceOnUse">
                                        <stop stop-color="#18B7F1"/>
                                        <stop offset="1" stop-color="#185EF1"/>
                                        </linearGradient>
                                        </defs>
                                    </svg>