<svg width="30" height="22" viewBox="0 0 30 22" fill="none" xmlns="http://www.w3.org/2000/svg">
                                        <g clip-path="url(#clip0_57_953)">
                                        <path d="M15.0007 8.98109C12.5294 8.98109 10.5181 6.96625 10.5181 4.49054C10.5181 2.01484 12.5279 0 15.0007 0C17.4736 0 19.4834 2.01484 19.4834 4.49054C19.4834 6.96625 17.4721 8.98109 15.0007 8.98109ZM15.0007 1.2216C13.2018 1.2216 11.7375 2.68842 11.7375 4.49054C11.7375 6.29267 13.2018 7.75948 15.0007 7.75948C16.7997 7.75948 18.2639 6.29267 18.2639 4.49054C18.2639 2.68842 16.7997 1.2216 15.0007 1.2216Z" fill="url(#paint0_linear_57_953)"/>
                                        <path d="M24.2992 10.2322C22.0195 10.2322 20.166 8.37395 20.166 6.09175C20.166 3.80955 22.021 1.95129 24.2992 1.95129C26.5774 1.95129 28.4324 3.80955 28.4324 6.09175C28.4324 8.37395 26.5774 10.2322 24.2992 10.2322ZM24.2992 3.17142C22.6919 3.17142 21.3855 4.48018 21.3855 6.09027C21.3855 7.70037 22.6919 9.00913 24.2992 9.00913C25.9065 9.00913 27.213 7.70037 27.213 6.09027C27.213 4.48018 25.9065 3.17142 24.2992 3.17142Z" fill="url(#paint1_linear_57_953)"/>
                                        <path d="M5.70058 10.2322C3.42091 10.2322 1.56738 8.37395 1.56738 6.09175C1.56738 4.98537 1.99796 3.94545 2.778 3.16404C3.55804 2.38262 4.59614 1.95129 5.70058 1.95129C7.98026 1.95129 9.83379 3.80955 9.83379 6.09175C9.83379 8.37395 7.97879 10.2322 5.70058 10.2322ZM5.70058 3.17142C4.92201 3.17142 4.19063 3.47572 3.64062 4.02669C3.09061 4.57767 2.78685 5.31034 2.78685 6.09027C2.78685 7.70037 4.09331 9.00913 5.70058 9.00913C7.30786 9.00913 8.61432 7.70037 8.61432 6.09027C8.61432 4.48018 7.30786 3.17142 5.70058 3.17142Z" fill="url(#paint2_linear_57_953)"/>
                                        <path d="M23.3409 20.4866C23.0961 20.4866 22.8646 20.3374 22.7717 20.0937C22.6508 19.7791 22.8086 19.426 23.1227 19.3049C24.957 18.6018 27.2294 17.3787 28.4223 16.7125C28.6862 16.5648 28.8248 16.2664 28.7688 15.9695C28.5992 15.0714 28.1657 14.253 27.5169 13.6031C26.6572 12.7434 25.5144 12.2692 24.3009 12.2692C23.6358 12.2692 22.9944 12.4095 22.3972 12.6872C22.092 12.8291 21.7292 12.6946 21.5877 12.3889C21.4461 12.0831 21.5803 11.7197 21.8855 11.5779C22.6449 11.2263 23.4574 11.0476 24.3009 11.0476C25.8403 11.0476 27.2898 11.6488 28.3795 12.7404C29.2023 13.5647 29.7509 14.6031 29.9676 15.742C30.1224 16.5574 29.7405 17.3757 29.0165 17.779C27.7956 18.4614 25.4643 19.7141 23.5592 20.4453C23.4869 20.4733 23.4132 20.4851 23.3409 20.4851V20.4866Z" fill="url(#paint3_linear_57_953)"/>
                                        <path d="M6.66216 20.491C6.58991 20.491 6.51765 20.4777 6.44687 20.4511C4.54616 19.7288 2.21635 18.4984 0.99836 17.8292C0.266976 17.4274 -0.119359 16.6076 0.0339954 15.7878C0.550093 13.0491 2.92709 11.055 5.686 11.0491H5.69927C6.54714 11.0491 7.36258 11.2293 8.12493 11.5838C8.43016 11.7256 8.56287 12.089 8.42131 12.3948C8.27976 12.7005 7.91701 12.8335 7.61178 12.6917C7.01163 12.4125 6.36725 12.2707 5.69927 12.2707H5.68895C3.51397 12.2751 1.6398 13.8498 1.23282 16.0138C1.17678 16.3122 1.31834 16.612 1.58376 16.7583C2.77521 17.4126 5.04604 18.6136 6.87892 19.3093C7.19448 19.429 7.35226 19.782 7.23282 20.0966C7.13992 20.3404 6.90841 20.491 6.66216 20.491Z" fill="url(#paint4_linear_57_953)"/>
                                        <path d="M15.0006 21.7895C13.4007 21.7895 11.7993 21.6491 10.2393 21.37C9.36041 21.2134 8.72192 20.4467 8.72192 19.5486V16.3225C8.72192 14.6474 9.36336 13.0639 10.5283 11.863C11.7005 10.6547 13.2636 9.97964 14.9298 9.96043C16.633 9.94271 18.2358 10.5956 19.4405 11.8024C20.6261 12.9901 21.2793 14.5691 21.2793 16.2487V19.5486C21.2793 20.4467 20.6408 21.2134 19.762 21.37C18.2019 21.6477 16.599 21.7895 15.0006 21.7895ZM15.0006 11.182C14.9814 11.182 14.9623 11.182 14.9431 11.182C12.1857 11.2131 9.94139 13.5189 9.94139 16.3225V19.5486C9.94139 19.8544 10.1567 20.1144 10.4516 20.1676C11.9409 20.4334 13.4715 20.5679 14.9991 20.5679C16.5268 20.5679 18.0574 20.4334 19.5467 20.1676C19.8431 20.1144 20.0569 19.8544 20.0569 19.5486V16.2487C20.0569 14.8956 19.5305 13.6223 18.575 12.6651C17.618 11.7064 16.3498 11.1806 14.9977 11.1806L15.0006 11.182Z" fill="url(#paint5_linear_57_953)"/>
                                        </g>
                                        <defs>
                                        <linearGradient id="paint0_linear_57_953" x1="10.5181" y1="4.49054" x2="19.4834" y2="4.49054" gradientUnits="userSpaceOnUse">
                                        <stop stop-color="#18B7F1"/>
                                        <stop offset="1" stop-color="#185EF1"/>
                                        </linearGradient>
                                        <linearGradient id="paint1_linear_57_953" x1="20.166" y1="6.09027" x2="28.4339" y2="6.09027" gradientUnits="userSpaceOnUse">
                                        <stop stop-color="#18B7F1"/>
                                        <stop offset="1" stop-color="#185EF1"/>
                                        </linearGradient>
                                        <linearGradient id="paint2_linear_57_953" x1="1.56591" y1="6.09027" x2="9.83379" y2="6.09027" gradientUnits="userSpaceOnUse">
                                        <stop stop-color="#18B7F1"/>
                                        <stop offset="1" stop-color="#185EF1"/>
                                        </linearGradient>
                                        <linearGradient id="paint3_linear_57_953" x1="21.5302" y1="15.7686" x2="30.0001" y2="15.7686" gradientUnits="userSpaceOnUse">
                                        <stop stop-color="#18B7F1"/>
                                        <stop offset="1" stop-color="#185EF1"/>
                                        </linearGradient>
                                        <linearGradient id="paint4_linear_57_953" x1="8.04306e-05" y1="15.7701" x2="8.47882" y2="15.7701" gradientUnits="userSpaceOnUse">
                                        <stop stop-color="#18B7F1"/>
                                        <stop offset="1" stop-color="#185EF1"/>
                                        </linearGradient>
                                        <linearGradient id="paint5_linear_57_953" x1="8.72192" y1="15.875" x2="21.2778" y2="15.875" gradientUnits="userSpaceOnUse">
                                        <stop stop-color="#18B7F1"/>
                                        <stop offset="1" stop-color="#185EF1"/>
                                        </linearGradient>
                                        <clipPath id="clip0_57_953">
                                        <rect width="30" height="21.7895" fill="white"/>
                                        </clipPath>
                                        </defs>
                                    </svg>