<svg width="30" height="30" viewBox="0 0 30 30" fill="none" xmlns="http://www.w3.org/2000/svg">
                                        <path d="M15.3005 30C13.9954 30 12.8234 29.3835 12.0925 28.3426C10.971 29.0147 9.60363 29.0837 8.38611 28.4959C7.15681 27.903 6.35356 26.7795 6.18348 25.4691C4.88345 25.5415 3.64236 24.9672 2.83574 23.8824C2.01901 22.7825 1.82535 21.4098 2.28171 20.1667C1.09451 19.6244 0.262623 18.5363 0.0521263 17.1972C-0.160054 15.8447 0.306406 14.5427 1.28311 13.655C0.48154 12.6175 0.250835 11.2633 0.690352 9.97642C1.13155 8.6862 2.14531 7.75139 3.41839 7.42294C3.18937 6.12767 3.6171 4.81893 4.60728 3.88411C5.59577 2.95098 6.92442 2.59895 8.20088 2.89877C8.60166 1.64561 9.58847 0.685529 10.9003 0.31834C12.2087 -0.0471644 13.5458 0.261072 14.5343 1.12178C15.4706 0.200435 16.7908 -0.190334 18.1212 0.0960055C19.4481 0.382345 20.4905 1.27842 20.9654 2.50126C22.2233 2.12228 23.5722 2.39178 24.6163 3.26427C25.6603 4.13508 26.1655 5.41519 26.0156 6.71888C27.3072 6.96816 28.3783 7.83729 28.8986 9.09887C29.4156 10.3554 29.2691 11.7214 28.5332 12.8061C29.5638 13.6298 30.1111 14.8998 29.9831 16.2624C29.8568 17.6133 29.0939 18.7519 27.9404 19.3667C28.4742 20.576 28.3682 21.9572 27.6238 23.1043C26.8863 24.2395 25.6839 24.8914 24.3771 24.8998C24.2896 26.2169 23.5604 27.3893 22.3715 28.0579C21.1911 28.7233 19.8203 28.7418 18.6584 28.1405C17.9747 29.2623 16.7908 29.9596 15.4335 30.0017C15.3898 30.0017 15.3443 30.0034 15.3005 30.0034V30ZM12.2727 26.8957C12.3131 26.8957 12.3552 26.9008 12.3957 26.9092C12.5758 26.948 12.7274 27.0675 12.8065 27.2343C13.2848 28.2483 14.2783 28.8546 15.3948 28.821C16.5113 28.7856 17.4611 28.1169 17.8719 27.076C17.9393 26.9042 18.0841 26.7745 18.2609 26.7256C18.4378 26.6768 18.6297 26.7121 18.7762 26.8233C19.6637 27.497 20.8189 27.5745 21.7905 27.0271C22.7689 26.4763 23.3044 25.4388 23.1882 24.3204C23.1697 24.1368 23.2371 23.9549 23.3701 23.8302C23.5031 23.7056 23.6901 23.6483 23.8719 23.6786C24.9665 23.8622 26.0257 23.3957 26.632 22.4592C27.2466 21.5125 27.2416 20.3419 26.6202 19.4037C26.5191 19.2505 26.4939 19.0584 26.5545 18.885C26.6151 18.7115 26.7532 18.575 26.9267 18.5178C27.9825 18.1708 28.7016 17.2629 28.806 16.1496C28.9104 15.0261 28.3648 13.9919 27.3813 13.4496C27.2214 13.3603 27.1102 13.202 27.0833 13.0217C27.0563 12.8415 27.1153 12.6562 27.2416 12.5248C28.0162 11.7231 28.2317 10.5828 27.804 9.54691C27.3746 8.50598 26.4147 7.84571 25.2949 7.82381C25.1113 7.82045 24.9396 7.73117 24.8318 7.58295C24.724 7.43473 24.6904 7.2444 24.7409 7.06922C25.0541 5.99798 24.7139 4.8863 23.8551 4.16877C22.9946 3.44955 21.8377 3.31312 20.8408 3.81337C20.6774 3.8959 20.4838 3.8959 20.3188 3.81674C20.1537 3.73589 20.0358 3.5843 19.9988 3.40407C19.7782 2.31093 18.9615 1.4856 17.8669 1.24979C16.7706 1.01398 15.6861 1.4317 15.0344 2.33956C14.9267 2.48779 14.7566 2.57874 14.573 2.58548C14.3878 2.59222 14.2143 2.51137 14.0982 2.3682C13.3943 1.50412 12.2879 1.15546 11.2118 1.45528C10.1307 1.75678 9.3645 2.63264 9.20958 3.74094C9.18432 3.92285 9.07654 4.08287 8.91657 4.17214C8.75659 4.26309 8.56462 4.2732 8.39622 4.20077C7.37068 3.76452 6.22894 3.9717 5.4139 4.74145C4.59717 5.51288 4.32605 6.64477 4.70326 7.6958C4.76557 7.86761 4.74368 8.05962 4.64432 8.21458C4.54497 8.36954 4.37994 8.46724 4.19807 8.4824C3.08496 8.57504 2.1672 9.29425 1.80346 10.3588C1.4414 11.4199 1.726 12.5451 2.54778 13.298C2.68249 13.4209 2.75322 13.6011 2.73638 13.7847C2.72123 13.9666 2.62019 14.1317 2.46526 14.2311C1.51887 14.8341 1.03894 15.902 1.21238 17.0187C1.38583 18.1219 2.15878 18.9826 3.23315 19.2639C3.40997 19.3111 3.55648 19.4374 3.6272 19.6059C3.69793 19.776 3.68614 19.968 3.59521 20.1263C3.03444 21.1049 3.10349 22.2756 3.77876 23.1817C4.44393 24.0761 5.52673 24.4753 6.60447 24.2244C6.78297 24.1822 6.97158 24.2277 7.11303 24.3439C7.25448 24.4618 7.33363 24.6387 7.32689 24.8223C7.28143 25.9474 7.88261 26.9496 8.89467 27.4381C9.89832 27.9215 11.0451 27.7716 11.8871 27.044C11.9949 26.9513 12.133 26.9008 12.2727 26.9008V26.8957Z" fill="url(#paint0_linear_0_1)"/>
                                        <path d="M11.0368 14.8728C9.32084 14.8728 7.92651 13.4765 7.92651 11.7618C7.92651 10.0472 9.32253 8.65085 11.0368 8.65085C12.7511 8.65085 14.1471 10.0472 14.1471 11.7618C14.1471 13.4765 12.7511 14.8728 11.0368 14.8728ZM11.0368 9.82821C9.97086 9.82821 9.1053 10.6957 9.1053 11.7602C9.1053 12.8247 9.97254 13.6921 11.0368 13.6921C12.1011 13.6921 12.9683 12.8247 12.9683 11.7602C12.9683 10.6957 12.1011 9.82821 11.0368 9.82821Z" fill="url(#paint1_linear_0_1)"/>
                                        <path d="M18.2424 21.3576C16.5264 21.3576 15.1321 19.9613 15.1321 18.2466C15.1321 16.5319 16.5281 15.1356 18.2424 15.1356C19.9567 15.1356 21.3527 16.5319 21.3527 18.2466C21.3527 19.9613 19.9567 21.3576 18.2424 21.3576ZM18.2424 16.313C17.1764 16.313 16.3109 17.1804 16.3109 18.2449C16.3109 19.3094 17.1781 20.1769 18.2424 20.1769C19.3067 20.1769 20.1739 19.3094 20.1739 18.2449C20.1739 17.1804 19.3067 16.313 18.2424 16.313Z" fill="url(#paint2_linear_0_1)"/>
                                        <path d="M18.8642 8.86439L9.49902 20.395L10.4139 21.1384L19.7791 9.60782L18.8642 8.86439Z" fill="url(#paint3_linear_0_1)"/>
                                        <defs>
                                        <linearGradient id="paint0_linear_0_1" x1="-7.68533e-05" y1="15.0008" x2="29.9999" y2="15.0008" gradientUnits="userSpaceOnUse">
                                        <stop stop-color="#18B7F1"/>
                                        <stop offset="1" stop-color="#185EF1"/>
                                        </linearGradient>
                                        <linearGradient id="paint1_linear_0_1" x1="7.92651" y1="11.7602" x2="14.1488" y2="11.7602" gradientUnits="userSpaceOnUse">
                                        <stop stop-color="#18B7F1"/>
                                        <stop offset="1" stop-color="#185EF1"/>
                                        </linearGradient>
                                        <linearGradient id="paint2_linear_0_1" x1="15.1304" y1="18.2466" x2="21.3527" y2="18.2466" gradientUnits="userSpaceOnUse">
                                        <stop stop-color="#18B7F1"/>
                                        <stop offset="1" stop-color="#185EF1"/>
                                        </linearGradient>
                                        <linearGradient id="paint3_linear_0_1" x1="9.49775" y1="15.0019" x2="19.7784" y2="15.0019" gradientUnits="userSpaceOnUse">
                                        <stop stop-color="#18B7F1"/>
                                        <stop offset="1" stop-color="#185EF1"/>
                                        </linearGradient>
                                        </defs>
                                    </svg>