<svg width="30" height="29" viewBox="0 0 30 29" fill="none" xmlns="http://www.w3.org/2000/svg">
                                        <path d="M26.6723 24.119C28.8237 21.6646 29.9999 18.558 29.9999 15.2504C29.9999 12.3771 29.1081 9.63369 27.4219 7.31838C27.2457 7.07727 26.9087 7.02318 26.6661 7.19937L16.1885 14.813C16.0618 14.9042 15.9814 15.0464 15.9675 15.2025C15.9536 15.3586 16.0077 15.5116 16.1159 15.6244L25.0958 24.9567C25.2024 25.0665 25.3431 25.1221 25.4853 25.1221C25.6274 25.1221 25.7557 25.0726 25.8608 24.9706C26.136 24.7048 26.3972 24.4281 26.646 24.1453C26.6553 24.136 26.663 24.1267 26.6707 24.1175L26.6723 24.119ZM19.7434 17.8331V15.0201C19.7434 14.7218 19.5007 14.4791 19.2024 14.4791C18.9041 14.4791 18.6615 14.7218 18.6615 15.0201V16.7094L17.3276 15.323L21.9288 11.9799L21.9118 18.8547C21.9118 19.153 22.153 19.3957 22.4513 19.3972C22.7496 19.3972 22.9922 19.1561 22.9922 18.8578L23.0108 11.1932L26.8547 8.4003C28.2055 10.4328 28.9165 12.7898 28.9165 15.2519C28.9165 17.7141 28.1792 20.1468 26.8098 22.1716V10.2488C26.8098 9.95053 26.5672 9.70787 26.2689 9.70787C25.9706 9.70787 25.7279 9.95053 25.7279 10.2488V23.5518C25.6491 23.6383 25.5734 23.7264 25.4914 23.8114L19.7403 17.8346L19.7434 17.8331Z" fill="url(#paint0_linear_0_1)"/>
                                        <path d="M14.7388 13.609C14.779 13.7867 14.9042 13.9335 15.0758 13.9985C15.1376 14.0216 15.2025 14.034 15.2674 14.034C15.3802 14.034 15.4915 13.9985 15.5858 13.9304L26.0634 6.31685C26.1793 6.23184 26.2566 6.1051 26.2798 5.96445C26.303 5.8238 26.2674 5.67852 26.1824 5.56105C23.6492 2.07882 19.5688 0 15.2674 0C14.2844 0 13.3045 0.106646 12.3509 0.316847C12.2102 0.347759 12.0881 0.432767 12.0108 0.554869C11.9336 0.675425 11.9073 0.822257 11.9382 0.962906L14.7373 13.6105L14.7388 13.609ZM15.2674 1.08192C19.0433 1.08192 22.6337 2.8238 24.9799 5.76661L15.6183 12.5688L13.1144 1.26739C13.8223 1.14374 14.5441 1.08192 15.2659 1.08192H15.2674Z" fill="url(#paint1_linear_0_1)"/>
                                        <path d="M13.9861 15.1561L11.2195 2.65689C11.1546 2.36477 10.8655 2.18084 10.575 2.24576C7.62133 2.89645 4.93818 4.55488 3.01855 6.915C1.07264 9.30913 0 12.3292 0 15.4204C0 22.8609 6.05255 28.9135 13.4915 28.9135C16.9985 28.9135 20.3199 27.575 22.847 25.1422C23.0618 24.9351 23.0695 24.592 22.8609 24.3771L13.9861 15.1546V15.1561ZM13.4915 27.8315C6.64915 27.8315 1.08192 22.2643 1.08192 15.4204C1.08192 9.82072 4.91963 4.86245 10.2828 3.42814L12.9629 15.5363C12.9845 15.6337 13.0325 15.7233 13.102 15.7944L21.6986 24.728C19.4297 26.7326 16.5363 27.83 13.4915 27.83V27.8315Z" fill="url(#paint2_linear_0_1)"/>
                                        <defs>
                                        <linearGradient id="paint0_linear_0_1" x1="15.9659" y1="16.1097" x2="29.9999" y2="16.1097" gradientUnits="userSpaceOnUse">
                                        <stop stop-color="#18B7F1"/>
                                        <stop offset="1" stop-color="#185EF1"/>
                                        </linearGradient>
                                        <linearGradient id="paint1_linear_0_1" x1="11.9258" y1="7.017" x2="26.286" y2="7.017" gradientUnits="userSpaceOnUse">
                                        <stop stop-color="#18B7F1"/>
                                        <stop offset="1" stop-color="#185EF1"/>
                                        </linearGradient>
                                        <linearGradient id="paint2_linear_0_1" x1="0" y1="15.5734" x2="23.0124" y2="15.5734" gradientUnits="userSpaceOnUse">
                                        <stop stop-color="#18B7F1"/>
                                        <stop offset="1" stop-color="#185EF1"/>
                                        </linearGradient>
                                        </defs>
                                    </svg>