<svg xmlns="http://www.w3.org/2000/svg" width="51.653" height="57.393" viewBox="0 0 51.653 57.393">
  <g id="Group_42172" data-name="Group 42172" transform="translate(-938.174 -2604.893)">
    <path id="calendar-account_1_" data-name="calendar-account (1)" d="M28.827,24.957a6.455,6.455,0,1,1-6.457,6.457,6.461,6.461,0,0,1,6.457-6.457M41.74,50.784H15.913V47.57c0-3.587,5.739-6.457,12.913-6.457S41.74,43.983,41.74,47.57" transform="translate(935.173 2602.893)" fill="#1877f2"/>
    <path id="calendar-account_1_2" data-name="calendar-account (1)" d="M48.914,53.653H8.739V22.087H48.914M40.305,2V7.739H17.348V2H11.609V7.739H8.739A5.739,5.739,0,0,0,3,13.479V53.653a5.739,5.739,0,0,0,5.739,5.739H48.914a5.739,5.739,0,0,0,5.739-5.739V13.479a5.739,5.739,0,0,0-5.739-5.739h-2.87V2Z" transform="translate(935.174 2602.893)" fill="#203ab3"/>
  </g>
</svg>
