<svg xmlns="http://www.w3.org/2000/svg" width="51.625" height="59" viewBox="0 0 51.625 59">
  <g id="Group_42144" data-name="Group 42144" transform="translate(4.076 6.479)">
    <g id="Group_42143" data-name="Group 42143">
      <g id="Group_42148" data-name="Group 42148" transform="translate(-61.813)">
        <path id="Path_105145" data-name="Path 105145" d="M36.852-18.368,31.344,3.688,27.656-11.984l3.688-6.453H20.281l3.688,6.453L20.281,3.688,14.773-18.368A15.461,15.461,0,0,0,0-2.95V1.844A5.533,5.533,0,0,0,5.531,7.375H46.094a5.533,5.533,0,0,0,5.531-5.531V-2.95A15.461,15.461,0,0,0,36.852-18.368Z" transform="translate(57.737 45.146)" fill="#203ab3"/>
        <path id="Path_105146" data-name="Path 105146" d="M25.813-22.125a14.749,14.749,0,0,0,14.75-14.75,14.749,14.749,0,0,0-14.75-14.75,14.749,14.749,0,0,0-14.75,14.75A14.749,14.749,0,0,0,25.813-22.125Z" transform="translate(57.737 45.146)" fill="#1877f2"/>
      </g>
    </g>
  </g>
</svg>
