<svg width="30" height="30" viewBox="0 0 30 30" fill="none" xmlns="http://www.w3.org/2000/svg">
                                        <path d="M27.8526 0H2.14745C0.963701 0 0 0.963701 0 2.14745V27.8526C0 29.0363 0.963701 30 2.14745 30H27.8526C29.0363 30 30 29.0363 30 27.8526V2.14745C30 0.963701 29.0363 0 27.8526 0ZM28.8757 27.8526C28.8757 28.4163 28.4163 28.8757 27.8526 28.8757H2.14745C1.58368 28.8757 1.12432 28.4163 1.12432 27.8526V2.14745C1.12432 1.58368 1.58368 1.12432 2.14745 1.12432H11.3315V9.6868H18.6701V1.12432H27.8542C28.4179 1.12432 28.8773 1.58368 28.8773 2.14745V27.8526H28.8757Z" fill="url(#paint0_linear_0_1)"/>
                                        <path d="M6.90171 26.627C7.30532 26.627 7.63251 26.2998 7.63251 25.8962C7.63251 25.4926 7.30532 25.1654 6.90171 25.1654C6.49809 25.1654 6.1709 25.4926 6.1709 25.8962C6.1709 26.2998 6.49809 26.627 6.90171 26.627Z" fill="url(#paint1_linear_0_1)"/>
                                        <path d="M27.1715 26.4118H20.204V26.627H27.1715V26.4118Z" fill="url(#paint2_linear_0_1)"/>
                                        <path d="M27.1715 24.4009H20.204V24.6161H27.1715V24.4009Z" fill="url(#paint3_linear_0_1)"/>
                                        <path d="M27.1715 22.3884H20.204V22.6036H27.1715V22.3884Z" fill="url(#paint4_linear_0_1)"/>
                                        <defs>
                                        <linearGradient id="paint0_linear_0_1" x1="0" y1="15" x2="30" y2="15" gradientUnits="userSpaceOnUse">
                                        <stop stop-color="#18B7F1"/>
                                        <stop offset="1" stop-color="#185EF1"/>
                                        </linearGradient>
                                        <linearGradient id="paint1_linear_0_1" x1="6.1709" y1="25.8962" x2="7.63412" y2="25.8962" gradientUnits="userSpaceOnUse">
                                        <stop stop-color="#18B7F1"/>
                                        <stop offset="1" stop-color="#185EF1"/>
                                        </linearGradient>
                                        <linearGradient id="paint2_linear_0_1" x1="20.204" y1="26.5194" x2="27.1715" y2="26.5194" gradientUnits="userSpaceOnUse">
                                        <stop stop-color="#18B7F1"/>
                                        <stop offset="1" stop-color="#185EF1"/>
                                        </linearGradient>
                                        <linearGradient id="paint3_linear_0_1" x1="20.204" y1="24.5085" x2="27.1715" y2="24.5085" gradientUnits="userSpaceOnUse">
                                        <stop stop-color="#18B7F1"/>
                                        <stop offset="1" stop-color="#185EF1"/>
                                        </linearGradient>
                                        <linearGradient id="paint4_linear_0_1" x1="20.204" y1="22.4976" x2="27.1715" y2="22.4976" gradientUnits="userSpaceOnUse">
                                        <stop stop-color="#18B7F1"/>
                                        <stop offset="1" stop-color="#185EF1"/>
                                        </linearGradient>
                                        </defs>
                                    </svg>