<svg xmlns="http://www.w3.org/2000/svg" width="346.448" height="289.147" viewBox="0 0 346.448 289.147">
  <g id="Group_60656" data-name="Group 60656" transform="translate(-52.105 415.328)">
    <g id="Group_58647" data-name="Group 58647" transform="translate(204.415 -622.368)">
      <g id="Group_58646" data-name="Group 58646" transform="translate(-82.315 315.642)">
        <path id="Path_126724" data-name="Path 126724" d="M.087,16.654C1.965,5.189,15.58,10.622,15.58,10.622S18.468-3.749,29.1.941s-1.709,31.483-1.709,31.483S-1.792,28.12.087,16.654Z" transform="translate(0 0)" fill="#42b72a"/>
      </g>
    </g>
    <g id="Group_58659" data-name="Group 58659" transform="translate(137.016 -550.943)">
      <g id="Group_58658" data-name="Group 58658" transform="translate(-84.911 334.112)">
        <g id="Group_58651" data-name="Group 58651" transform="translate(78.876 60.789)">
          <g id="Group_58650" data-name="Group 58650" transform="translate(0)">
            <path id="Path_126726" data-name="Path 126726" d="M3.434,29.86,0,14.438,22.435,0,86.62,13.839ZM2.3,15.382l2.7,12.1L76.426,13.725,22.83,2.169Z" transform="translate(0)" fill="#31313b"/>
          </g>
        </g>
        <g id="Group_58653" data-name="Group 58653" transform="translate(0 52.707)">
          <g id="Group_58652" data-name="Group 58652" transform="translate(0 0)">
            <path id="Path_126727" data-name="Path 126727" d="M167.432,22.782,73.456,0,0,23.183Z" transform="translate(0 0)" fill="#006bff"/>
          </g>
        </g>
        <g id="Group_58655" data-name="Group 58655" transform="translate(96.006 0)">
          <g id="Group_58654" data-name="Group 58654" transform="translate(0)">
            <path id="Path_126728" data-name="Path 126728" d="M0,40.98,71.426,75.49,9.057,0Z" transform="translate(0)" fill="#006bff"/>
          </g>
        </g>
        <g id="Group_58657" data-name="Group 58657" transform="translate(96.006 40.98)">
          <g id="Group_58656" data-name="Group 58656" transform="translate(0)">
            <path id="Path_126729" data-name="Path 126729" d="M0,0,4.837,18.366,71.426,34.51Z" transform="translate(0)" fill="#31313b"/>
          </g>
        </g>
      </g>
    </g>
    <g id="Group_59531" data-name="Group 59531" transform="translate(292.762 -752.71)">
      <g id="Group_59528" data-name="Group 59528" transform="translate(-50.661 337.383)">
        <g id="Group_59527" data-name="Group 59527" transform="translate(0)">
          <path id="Path_127549" data-name="Path 127549" d="M156.452,70.926C156.452,31.755,121.429,0,78.226,0S0,31.755,0,70.926s35.023,70.926,78.226,70.926a85.486,85.486,0,0,0,24.969-3.691c6.609,7.245,17.388,15.152,34.524,19.124,0,0-11.172-12.535-14.8-28.147C143.186,116.322,156.452,95.03,156.452,70.926Z" transform="translate(0)" fill="#006bff"/>
        </g>
      </g>
      <g id="Group_59530" data-name="Group 59530" transform="translate(-85.371 393.236)">
        <g id="Group_59529" data-name="Group 59529" transform="translate(0)">
          <path id="Path_127550" data-name="Path 127550" d="M0,57.94C0,25.94,28.61,0,63.9,0s63.9,25.941,63.9,57.94S99.2,115.88,63.9,115.88a69.83,69.83,0,0,1-20.4-3.015c-5.4,5.919-14.2,12.377-28.2,15.622,0,0,9.126-10.239,12.089-22.993C10.836,95.023,0,77.63,0,57.94Z" transform="translate(0.697 0.697)" fill="#fff"/>
          <path id="Path_127551" data-name="Path 127551" d="M14.022,130.358l1.458-1.638c.089-.1,8.815-10,11.816-22.209C10.195,95.513,0,77.652,0,58.637,0,26.3,28.98,0,64.6,0s64.6,26.3,64.6,58.637-28.98,58.637-64.6,58.637a70.544,70.544,0,0,1-20.18-2.919c-7.042,7.576-16.548,12.793-28.263,15.508ZM64.6,1.394c-34.852,0-63.206,25.679-63.206,57.243,0,18.69,10.119,36.246,27.068,46.964l.418.264-.112.482c-2.279,9.81-8.222,18.227-10.9,21.656,10.67-2.807,19.35-7.817,25.822-14.913l.3-.326.421.129A69.122,69.122,0,0,0,64.6,115.88c34.852,0,63.206-25.679,63.206-57.243S99.452,1.394,64.6,1.394Z" transform="translate(0)" fill="#31313b"/>
        </g>
      </g>
    </g>
    <g id="Group_60591" data-name="Group 60591" transform="translate(255.642 -583.143)">
      <g id="Group_60590" data-name="Group 60590" transform="translate(-81.921 312.841)">
        <path id="Path_128580" data-name="Path 128580" d="M1.23,42.2A73.4,73.4,0,0,1,12.991.895c.426-.659-.626-1.269-1.05-.614A74.573,74.573,0,0,0,.014,42.2a.608.608,0,0,0,1.216,0Z" transform="translate(0 0)" fill="#31313b"/>
      </g>
    </g>
  </g>
</svg>
