<svg xmlns="http://www.w3.org/2000/svg" width="73.688" height="56.875" viewBox="0 0 73.688 56.875">
  <g id="Group_42175" data-name="Group 42175" transform="translate(-1130.438 -2658.473)">
    <path id="Path_105149" data-name="Path 105149" d="M67.031-52.812H6.094A6.1,6.1,0,0,0,0-46.719v2.031H73.125v-2.031A6.1,6.1,0,0,0,67.031-52.812Z" transform="translate(1131 2711.285)" fill="#1877f2"/>
    <path id="Path_105150" data-name="Path 105150" d="M0-2.031A6.1,6.1,0,0,0,6.094,4.063H67.031a6.1,6.1,0,0,0,6.094-6.094V-40.625H0ZM44.688-31.484A1.019,1.019,0,0,1,45.7-32.5H63.984A1.019,1.019,0,0,1,65-31.484v2.031a1.019,1.019,0,0,1-1.016,1.016H45.7a1.019,1.019,0,0,1-1.016-1.016Zm0,8.125A1.019,1.019,0,0,1,45.7-24.375H63.984A1.019,1.019,0,0,1,65-23.359v2.031a1.019,1.019,0,0,1-1.016,1.016H45.7a1.019,1.019,0,0,1-1.016-1.016Zm0,8.125A1.019,1.019,0,0,1,45.7-16.25H63.984A1.019,1.019,0,0,1,65-15.234V-13.2a1.019,1.019,0,0,1-1.016,1.016H45.7A1.019,1.019,0,0,1,44.688-13.2ZM22.344-32.5a8.133,8.133,0,0,1,8.125,8.125,8.133,8.133,0,0,1-8.125,8.125,8.133,8.133,0,0,1-8.125-8.125A8.133,8.133,0,0,1,22.344-32.5ZM8.519-6.576a8.136,8.136,0,0,1,7.731-5.611h1.041a13.15,13.15,0,0,0,5.053,1.016A13.1,13.1,0,0,0,27.4-12.187h1.041a8.136,8.136,0,0,1,7.731,5.611,2,2,0,0,1-1.981,2.514H10.5A2,2,0,0,1,8.519-6.576Z" transform="translate(1130.438 2711.285)" fill="#203ab3"/>
  </g>
</svg>
