<svg xmlns="http://www.w3.org/2000/svg" width="59" height="59.001" viewBox="0 0 59 59.001">
  <g id="Group_42174" data-name="Group 42174" transform="translate(-1136 -2657.659)">
    <path id="Path_105147" data-name="Path 105147" d="M57.57-24.4l-6.694-3.034L32.25-18.986a6.613,6.613,0,0,1-2.75.6,6.617,6.617,0,0,1-2.75-.6L8.125-27.429,1.43-24.4a2.572,2.572,0,0,0,0,4.609L28.273-7.618a2.959,2.959,0,0,0,2.453,0L57.57-19.786A2.572,2.572,0,0,0,57.57-24.4Z" transform="translate(1136 2709.285)" fill="#1877f2"/>
    <path id="Path_105148" data-name="Path 105148" d="M1.43-34.568,28.273-22.391a2.951,2.951,0,0,0,2.453,0L57.569-34.568a2.575,2.575,0,0,0,0-4.613L30.727-51.359a3.511,3.511,0,0,0-1.227-.267,3.51,3.51,0,0,0-1.227.267L1.43-39.182A2.576,2.576,0,0,0,1.43-34.568Zm56.14,24.9L50.9-12.691,32.25-4.236a6.613,6.613,0,0,1-2.75.6,6.617,6.617,0,0,1-2.75-.6L8.1-12.691,1.43-9.668a2.572,2.572,0,0,0,0,4.609L28.273,7.109a2.96,2.96,0,0,0,2.453,0L57.57-5.059A2.572,2.572,0,0,0,57.57-9.668Z" transform="translate(1136 2709.285)" fill="#203ab3"/>
  </g>
</svg>
