<?xml version="1.0" standalone="no"?>
<!DOCTYPE svg PUBLIC "-//W3C//DTD SVG 20010904//EN" "http://www.w3.org/TR/2001/REC-SVG-20010904/DTD/svg10.dtd">
<svg
    version="1.0"
    xmlns="http://www.w3.org/2000/svg"
    width="1372.000000pt"
    height="600.000000pt"
    viewBox="0 0 1372.000000 600.000000"
    preserveAspectRatio="xMidYMid meet"
>
    <g
    transform="translate(0.000000,600.000000) scale(0.100000,-0.100000)"
    fill="#1c2373"
    stroke="none"
    >
    <path
        d="M1405 5988 c-3 -7 -68 -283 -145 -613 -77 -330 -143 -608 -146 -617
-5 -17 112 -18 2360 -18 1301 0 2366 -2 2366 -5 0 -6 -729 -3111 -736 -3138
-5 -16 105 -17 2205 -17 1216 0 2211 1 2211 3 0 1 150 639 334 1417 183 778
331 1418 329 1423 -2 4 -285 7 -629 7 -586 0 -625 -1 -631 -18 -4 -9 -89 -363
-188 -787 l-181 -770 -945 -3 -945 -2 363 1542 c199 849 365 1558 369 1576 l6
32 -2996 0 c-2388 0 -2998 -3 -3001 -12z"
    />
    <path
        d="M7571 5388 c-80 -337 -146 -621 -149 -630 -4 -17 106 -18 2206 -18
l2211 0 10 38 c6 20 71 298 146 617 74 319 137 586 140 593 3 9 -442 12 -2208
12 l-2213 0 -143 -612z"
    fill="#54ed69"
    />
    <path
        d="M12445 5988 c-2 -7 -67 -283 -145 -613 -77 -330 -143 -608 -146 -617
-5 -17 30 -18 630 -18 350 0 636 3 636 8 0 4 29 127 63 275 l64 267 -354 0
c-194 0 -353 3 -353 8 0 4 7 40 17 80 l17 72 355 0 356 0 58 253 c33 138 61
262 64 275 l5 22 -631 0 c-496 0 -633 -3 -636 -12z"
    />
    <path
        d="M1035 4418 c-2 -7 -67 -285 -145 -618 -78 -333 -144 -613 -146 -622
-5 -17 74 -18 1570 -18 942 0 1576 -4 1576 -9 0 -10 -44 -199 -61 -263 l-10
-38 -1577 -2 -1577 -3 -332 -1410 c-182 -776 -332 -1416 -332 -1423 -1 -10
601 -12 2996 -10 l2998 3 147 625 c81 344 148 628 148 633 0 4 -1065 7 -2366
7 -1889 0 -2365 3 -2362 13 3 6 20 76 38 155 l33 142 1578 0 1577 0 5 22 c63
255 657 2798 657 2811 0 16 -122 17 -2205 17 -1756 0 -2206 -3 -2210 -12z"
    />
    <path
        d="M10492 4388 c-6 -24 -171 -725 -367 -1558 -196 -833 -358 -1525 -362
-1537 l-5 -23 -788 0 -788 0 -10 -43 c-38 -147 -282 -1200 -282 -1212 0 -13
160 -15 1414 -15 792 0 1417 4 1420 9 7 11 1036 4387 1036 4406 0 13 -80 15
-629 15 l-629 0 -10 -42z"
    />
    <path
        d="M12075 4418 c-6 -20 -1035 -4405 -1035 -4412 0 -3 284 -5 632 -4
l632 3 518 2200 c284 1210 517 2206 518 2213 0 9 -132 12 -630 12 -496 0 -631
-3 -635 -12z"
    />
    <path
        d="M6591 1223 c-5 -27 -71 -307 -146 -623 -74 -316 -135 -580 -135 -587
0 -11 120 -13 632 -11 l632 3 148 630 c81 347 148 631 148 633 0 1 -285 2
-634 2 l-634 0 -11 -47z"
        fill="#54ed69"
    />
    </g>
</svg>
