<svg xmlns="http://www.w3.org/2000/svg" viewBox="0 0 52 47.75"><g fill="none"><path d="M26.03 1l2.2 4.51 5 .73-3.61 3.52.85 5-4.44-2.38-4.46 2.34.86-5-3.64-3.48 5-.73zm16.75 9.06l1.58 3.2 3.53.52-2.55 2.49.6 3.51-3.16-1.66-3.16 1.66.61-3.51-2.56-2.49 3.53-.52zm-33.55 0l1.58 3.2 3.53.52-2.56 2.49.6 3.51-3.15-1.66-3.2 1.66.6-3.51-2.52-2.49 3.54-.52z" stroke="#e7a614" stroke-linejoin="round" stroke-width="2"></path><g stroke="#013c6a"><circle cx="26" cy="26.02" r="6.96" stroke-width="2"></circle><circle cx="42.06" cy="30.06" r="5.23" stroke-width="2"></circle><circle cx="9.94" cy="30.06" r="5.23" stroke-width="2"></circle></g></g><g fill="#f4f6fd"><path d="M51.03 46.75H33.11c-.57-.39.11-9.72 9-9.72 6.85 0 8.92 6.63 8.92 9.72zm-32 0H1.15c-.57-.39.11-9.72 9-9.72 6.88 0 8.88 6.63 8.88 9.72z" stroke-width="2" stroke="#013c6a"></path><path d="M37.03 46.75H15.25c-.7-.47.13-11.82 11-11.82 8.27 0 10.78 8.06 10.78 11.82z" stroke-width="2" stroke="#013c6a"></path></g><g fill="#e7a614"><circle cx="26.11" cy="38.95" r=".94"></circle><path d="M33.63 42.66a11.25 11.25 0 0 0-2.87-3.21c-1.16-1.13-2.79.53-1.23 1.42a10.35 10.35 0 0 1 2.78 3.12c.98.47 1.77-.14 1.32-1.33z"></path></g></svg>